<mxfile host="Electron" modified="2023-06-10T06:10:22.036Z" agent="Mozilla/5.0 (Windows NT 10.0; Win64; x64) AppleWebKit/537.36 (KHTML, like Gecko) draw.io/21.3.7 Chrome/112.0.5615.204 Electron/24.5.0 Safari/537.36" etag="xK7Y8n72RCmFQboC6utj" version="21.3.7" type="device">
  <diagram name="Página-1" id="AiTREQejT8kWrLq7BNib">
    <mxGraphModel dx="1340" dy="930" grid="1" gridSize="10" guides="1" tooltips="1" connect="1" arrows="1" fold="1" page="1" pageScale="1" pageWidth="827" pageHeight="1169" math="0" shadow="0">
      <root>
        <mxCell id="0" />
        <mxCell id="1" parent="0" />
        <mxCell id="RjrYdE1nBT9Rv9Lv7ZY--72" value="" style="rounded=0;whiteSpace=wrap;html=1;" vertex="1" parent="1">
          <mxGeometry x="10" y="10" width="810" height="920" as="geometry" />
        </mxCell>
        <mxCell id="RjrYdE1nBT9Rv9Lv7ZY--70" value="" style="rounded=0;whiteSpace=wrap;html=1;fillColor=#FF9999;" vertex="1" parent="1">
          <mxGeometry x="566" y="250" width="253" height="500" as="geometry" />
        </mxCell>
        <mxCell id="RjrYdE1nBT9Rv9Lv7ZY--63" value="" style="rounded=0;whiteSpace=wrap;html=1;fillColor=#7DEEFF;" vertex="1" parent="1">
          <mxGeometry x="9" y="30" width="550" height="760" as="geometry" />
        </mxCell>
        <mxCell id="RjrYdE1nBT9Rv9Lv7ZY--69" value="" style="rounded=0;whiteSpace=wrap;html=1;fillColor=#CDFFAB;" vertex="1" parent="1">
          <mxGeometry x="19" y="210" width="530" height="220" as="geometry" />
        </mxCell>
        <mxCell id="RjrYdE1nBT9Rv9Lv7ZY--66" value="" style="rounded=0;whiteSpace=wrap;html=1;fillColor=#FFDBA6;" vertex="1" parent="1">
          <mxGeometry x="109" y="50" width="320" height="140" as="geometry" />
        </mxCell>
        <mxCell id="RjrYdE1nBT9Rv9Lv7ZY--1" value="Calculadora" style="swimlane;fontStyle=1;align=center;verticalAlign=top;childLayout=stackLayout;horizontal=1;startSize=26;horizontalStack=0;resizeParent=1;resizeParentMax=0;resizeLast=0;collapsible=1;marginBottom=0;whiteSpace=wrap;html=1;" vertex="1" parent="1">
          <mxGeometry x="249" y="441" width="160" height="242" as="geometry" />
        </mxCell>
        <mxCell id="RjrYdE1nBT9Rv9Lv7ZY--2" value="- terminoA: double" style="text;strokeColor=none;fillColor=none;align=left;verticalAlign=top;spacingLeft=4;spacingRight=4;overflow=hidden;rotatable=0;points=[[0,0.5],[1,0.5]];portConstraint=eastwest;whiteSpace=wrap;html=1;" vertex="1" parent="RjrYdE1nBT9Rv9Lv7ZY--1">
          <mxGeometry y="26" width="160" height="26" as="geometry" />
        </mxCell>
        <mxCell id="RjrYdE1nBT9Rv9Lv7ZY--5" value="- terminoB: double" style="text;strokeColor=none;fillColor=none;align=left;verticalAlign=top;spacingLeft=4;spacingRight=4;overflow=hidden;rotatable=0;points=[[0,0.5],[1,0.5]];portConstraint=eastwest;whiteSpace=wrap;html=1;" vertex="1" parent="RjrYdE1nBT9Rv9Lv7ZY--1">
          <mxGeometry y="52" width="160" height="26" as="geometry" />
        </mxCell>
        <mxCell id="RjrYdE1nBT9Rv9Lv7ZY--3" value="" style="line;strokeWidth=1;fillColor=none;align=left;verticalAlign=middle;spacingTop=-1;spacingLeft=3;spacingRight=3;rotatable=0;labelPosition=right;points=[];portConstraint=eastwest;strokeColor=inherit;" vertex="1" parent="RjrYdE1nBT9Rv9Lv7ZY--1">
          <mxGeometry y="78" width="160" height="8" as="geometry" />
        </mxCell>
        <mxCell id="RjrYdE1nBT9Rv9Lv7ZY--4" value="+ setValorA(double): void" style="text;strokeColor=none;fillColor=none;align=left;verticalAlign=top;spacingLeft=4;spacingRight=4;overflow=hidden;rotatable=0;points=[[0,0.5],[1,0.5]];portConstraint=eastwest;whiteSpace=wrap;html=1;" vertex="1" parent="RjrYdE1nBT9Rv9Lv7ZY--1">
          <mxGeometry y="86" width="160" height="26" as="geometry" />
        </mxCell>
        <mxCell id="RjrYdE1nBT9Rv9Lv7ZY--6" value="+ setValorB(double): void" style="text;strokeColor=none;fillColor=none;align=left;verticalAlign=top;spacingLeft=4;spacingRight=4;overflow=hidden;rotatable=0;points=[[0,0.5],[1,0.5]];portConstraint=eastwest;whiteSpace=wrap;html=1;" vertex="1" parent="RjrYdE1nBT9Rv9Lv7ZY--1">
          <mxGeometry y="112" width="160" height="26" as="geometry" />
        </mxCell>
        <mxCell id="RjrYdE1nBT9Rv9Lv7ZY--7" value="+ Sumar(): double" style="text;strokeColor=none;fillColor=none;align=left;verticalAlign=top;spacingLeft=4;spacingRight=4;overflow=hidden;rotatable=0;points=[[0,0.5],[1,0.5]];portConstraint=eastwest;whiteSpace=wrap;html=1;" vertex="1" parent="RjrYdE1nBT9Rv9Lv7ZY--1">
          <mxGeometry y="138" width="160" height="26" as="geometry" />
        </mxCell>
        <mxCell id="RjrYdE1nBT9Rv9Lv7ZY--8" value="+ Restar(): double" style="text;strokeColor=none;fillColor=none;align=left;verticalAlign=top;spacingLeft=4;spacingRight=4;overflow=hidden;rotatable=0;points=[[0,0.5],[1,0.5]];portConstraint=eastwest;whiteSpace=wrap;html=1;" vertex="1" parent="RjrYdE1nBT9Rv9Lv7ZY--1">
          <mxGeometry y="164" width="160" height="26" as="geometry" />
        </mxCell>
        <mxCell id="RjrYdE1nBT9Rv9Lv7ZY--9" value="+ Multiplicar(): double" style="text;strokeColor=none;fillColor=none;align=left;verticalAlign=top;spacingLeft=4;spacingRight=4;overflow=hidden;rotatable=0;points=[[0,0.5],[1,0.5]];portConstraint=eastwest;whiteSpace=wrap;html=1;" vertex="1" parent="RjrYdE1nBT9Rv9Lv7ZY--1">
          <mxGeometry y="190" width="160" height="26" as="geometry" />
        </mxCell>
        <mxCell id="RjrYdE1nBT9Rv9Lv7ZY--10" value="+ Dividir(): double" style="text;strokeColor=none;fillColor=none;align=left;verticalAlign=top;spacingLeft=4;spacingRight=4;overflow=hidden;rotatable=0;points=[[0,0.5],[1,0.5]];portConstraint=eastwest;whiteSpace=wrap;html=1;" vertex="1" parent="RjrYdE1nBT9Rv9Lv7ZY--1">
          <mxGeometry y="216" width="160" height="26" as="geometry" />
        </mxCell>
        <mxCell id="RjrYdE1nBT9Rv9Lv7ZY--12" value="Exception" style="swimlane;fontStyle=1;align=center;verticalAlign=top;childLayout=stackLayout;horizontal=1;startSize=26;horizontalStack=0;resizeParent=1;resizeParentMax=0;resizeLast=0;collapsible=1;marginBottom=0;whiteSpace=wrap;html=1;" vertex="1" parent="1">
          <mxGeometry x="189" y="80" width="160" height="60" as="geometry" />
        </mxCell>
        <mxCell id="RjrYdE1nBT9Rv9Lv7ZY--14" value="" style="line;strokeWidth=1;fillColor=none;align=left;verticalAlign=middle;spacingTop=-1;spacingLeft=3;spacingRight=3;rotatable=0;labelPosition=right;points=[];portConstraint=eastwest;strokeColor=inherit;" vertex="1" parent="RjrYdE1nBT9Rv9Lv7ZY--12">
          <mxGeometry y="26" width="160" height="8" as="geometry" />
        </mxCell>
        <mxCell id="RjrYdE1nBT9Rv9Lv7ZY--15" value="+ getMessage(): String" style="text;strokeColor=none;fillColor=none;align=left;verticalAlign=top;spacingLeft=4;spacingRight=4;overflow=hidden;rotatable=0;points=[[0,0.5],[1,0.5]];portConstraint=eastwest;whiteSpace=wrap;html=1;" vertex="1" parent="RjrYdE1nBT9Rv9Lv7ZY--12">
          <mxGeometry y="34" width="160" height="26" as="geometry" />
        </mxCell>
        <mxCell id="RjrYdE1nBT9Rv9Lv7ZY--16" value="ExcepcionDividir0" style="swimlane;fontStyle=1;align=center;verticalAlign=top;childLayout=stackLayout;horizontal=1;startSize=26;horizontalStack=0;resizeParent=1;resizeParentMax=0;resizeLast=0;collapsible=1;marginBottom=0;whiteSpace=wrap;html=1;" vertex="1" parent="1">
          <mxGeometry x="29" y="290" width="220" height="100" as="geometry" />
        </mxCell>
        <mxCell id="RjrYdE1nBT9Rv9Lv7ZY--17" value="- MESSAGE =&amp;nbsp;&quot;No es posible dividir entre 0.&quot;" style="text;strokeColor=none;fillColor=none;align=left;verticalAlign=top;spacingLeft=4;spacingRight=4;overflow=hidden;rotatable=0;points=[[0,0.5],[1,0.5]];portConstraint=eastwest;whiteSpace=wrap;html=1;" vertex="1" parent="RjrYdE1nBT9Rv9Lv7ZY--16">
          <mxGeometry y="26" width="220" height="34" as="geometry" />
        </mxCell>
        <mxCell id="RjrYdE1nBT9Rv9Lv7ZY--18" value="" style="line;strokeWidth=1;fillColor=none;align=left;verticalAlign=middle;spacingTop=-1;spacingLeft=3;spacingRight=3;rotatable=0;labelPosition=right;points=[];portConstraint=eastwest;strokeColor=inherit;" vertex="1" parent="RjrYdE1nBT9Rv9Lv7ZY--16">
          <mxGeometry y="60" width="220" height="8" as="geometry" />
        </mxCell>
        <mxCell id="RjrYdE1nBT9Rv9Lv7ZY--19" value="+&amp;nbsp;ExcepcionDividir0()" style="text;strokeColor=none;fillColor=none;align=left;verticalAlign=top;spacingLeft=4;spacingRight=4;overflow=hidden;rotatable=0;points=[[0,0.5],[1,0.5]];portConstraint=eastwest;whiteSpace=wrap;html=1;" vertex="1" parent="RjrYdE1nBT9Rv9Lv7ZY--16">
          <mxGeometry y="68" width="220" height="32" as="geometry" />
        </mxCell>
        <mxCell id="RjrYdE1nBT9Rv9Lv7ZY--20" value="ExcepcionFormatoNumerico" style="swimlane;fontStyle=1;align=center;verticalAlign=top;childLayout=stackLayout;horizontal=1;startSize=26;horizontalStack=0;resizeParent=1;resizeParentMax=0;resizeLast=0;collapsible=1;marginBottom=0;whiteSpace=wrap;html=1;" vertex="1" parent="1">
          <mxGeometry x="289" y="290" width="220" height="100" as="geometry" />
        </mxCell>
        <mxCell id="RjrYdE1nBT9Rv9Lv7ZY--21" value="- MESSAGE=&amp;nbsp;&amp;nbsp;&quot;Error al ingresar los valores, solo números.&quot;" style="text;strokeColor=none;fillColor=none;align=left;verticalAlign=top;spacingLeft=4;spacingRight=4;overflow=hidden;rotatable=0;points=[[0,0.5],[1,0.5]];portConstraint=eastwest;whiteSpace=wrap;html=1;" vertex="1" parent="RjrYdE1nBT9Rv9Lv7ZY--20">
          <mxGeometry y="26" width="220" height="34" as="geometry" />
        </mxCell>
        <mxCell id="RjrYdE1nBT9Rv9Lv7ZY--22" value="" style="line;strokeWidth=1;fillColor=none;align=left;verticalAlign=middle;spacingTop=-1;spacingLeft=3;spacingRight=3;rotatable=0;labelPosition=right;points=[];portConstraint=eastwest;strokeColor=inherit;" vertex="1" parent="RjrYdE1nBT9Rv9Lv7ZY--20">
          <mxGeometry y="60" width="220" height="8" as="geometry" />
        </mxCell>
        <mxCell id="RjrYdE1nBT9Rv9Lv7ZY--23" value="+&amp;nbsp;ExcepcionFormatoNumerico()" style="text;strokeColor=none;fillColor=none;align=left;verticalAlign=top;spacingLeft=4;spacingRight=4;overflow=hidden;rotatable=0;points=[[0,0.5],[1,0.5]];portConstraint=eastwest;whiteSpace=wrap;html=1;" vertex="1" parent="RjrYdE1nBT9Rv9Lv7ZY--20">
          <mxGeometry y="68" width="220" height="32" as="geometry" />
        </mxCell>
        <mxCell id="RjrYdE1nBT9Rv9Lv7ZY--24" value="Extends" style="endArrow=block;endSize=16;endFill=0;html=1;rounded=0;" edge="1" parent="1" source="RjrYdE1nBT9Rv9Lv7ZY--16" target="RjrYdE1nBT9Rv9Lv7ZY--12">
          <mxGeometry x="0.3571" width="160" relative="1" as="geometry">
            <mxPoint x="239" y="200" as="sourcePoint" />
            <mxPoint x="399" y="200" as="targetPoint" />
            <Array as="points">
              <mxPoint x="139" y="230" />
              <mxPoint x="269" y="230" />
            </Array>
            <mxPoint as="offset" />
          </mxGeometry>
        </mxCell>
        <mxCell id="RjrYdE1nBT9Rv9Lv7ZY--25" value="Extends" style="endArrow=block;endSize=16;endFill=0;html=1;rounded=0;" edge="1" parent="1" source="RjrYdE1nBT9Rv9Lv7ZY--20" target="RjrYdE1nBT9Rv9Lv7ZY--12">
          <mxGeometry x="0.3571" width="160" relative="1" as="geometry">
            <mxPoint x="389" y="170" as="sourcePoint" />
            <mxPoint x="549" y="170" as="targetPoint" />
            <Array as="points">
              <mxPoint x="399" y="230" />
              <mxPoint x="269" y="230" />
            </Array>
            <mxPoint as="offset" />
          </mxGeometry>
        </mxCell>
        <mxCell id="RjrYdE1nBT9Rv9Lv7ZY--26" value="" style="endArrow=open;endFill=1;endSize=12;html=1;rounded=0;" edge="1" parent="1" source="RjrYdE1nBT9Rv9Lv7ZY--1" target="RjrYdE1nBT9Rv9Lv7ZY--16">
          <mxGeometry width="160" relative="1" as="geometry">
            <mxPoint x="319" y="510" as="sourcePoint" />
            <mxPoint x="219" y="470" as="targetPoint" />
            <Array as="points">
              <mxPoint x="139" y="562" />
            </Array>
          </mxGeometry>
        </mxCell>
        <mxCell id="RjrYdE1nBT9Rv9Lv7ZY--27" value="PantallaCalculadora&lt;br&gt;" style="swimlane;fontStyle=1;align=center;verticalAlign=top;childLayout=stackLayout;horizontal=1;startSize=26;horizontalStack=0;resizeParent=1;resizeParentMax=0;resizeLast=0;collapsible=1;marginBottom=0;whiteSpace=wrap;html=1;" vertex="1" parent="1">
          <mxGeometry x="586" y="420" width="220" height="284" as="geometry" />
        </mxCell>
        <mxCell id="RjrYdE1nBT9Rv9Lv7ZY--28" value="- casio: Calculadora" style="text;strokeColor=none;fillColor=none;align=left;verticalAlign=top;spacingLeft=4;spacingRight=4;overflow=hidden;rotatable=0;points=[[0,0.5],[1,0.5]];portConstraint=eastwest;whiteSpace=wrap;html=1;" vertex="1" parent="RjrYdE1nBT9Rv9Lv7ZY--27">
          <mxGeometry y="26" width="220" height="26" as="geometry" />
        </mxCell>
        <mxCell id="RjrYdE1nBT9Rv9Lv7ZY--29" value="" style="line;strokeWidth=1;fillColor=none;align=left;verticalAlign=middle;spacingTop=-1;spacingLeft=3;spacingRight=3;rotatable=0;labelPosition=right;points=[];portConstraint=eastwest;strokeColor=inherit;" vertex="1" parent="RjrYdE1nBT9Rv9Lv7ZY--27">
          <mxGeometry y="52" width="220" height="8" as="geometry" />
        </mxCell>
        <mxCell id="RjrYdE1nBT9Rv9Lv7ZY--30" value="+ PantallaCalculadora()" style="text;strokeColor=none;fillColor=none;align=left;verticalAlign=top;spacingLeft=4;spacingRight=4;overflow=hidden;rotatable=0;points=[[0,0.5],[1,0.5]];portConstraint=eastwest;whiteSpace=wrap;html=1;" vertex="1" parent="RjrYdE1nBT9Rv9Lv7ZY--27">
          <mxGeometry y="60" width="220" height="26" as="geometry" />
        </mxCell>
        <mxCell id="RjrYdE1nBT9Rv9Lv7ZY--37" value="- agregarBotones() : void" style="text;strokeColor=none;fillColor=none;align=left;verticalAlign=top;spacingLeft=4;spacingRight=4;overflow=hidden;rotatable=0;points=[[0,0.5],[1,0.5]];portConstraint=eastwest;whiteSpace=wrap;html=1;" vertex="1" parent="RjrYdE1nBT9Rv9Lv7ZY--27">
          <mxGeometry y="86" width="220" height="26" as="geometry" />
        </mxCell>
        <mxCell id="RjrYdE1nBT9Rv9Lv7ZY--38" value="- redondearNumero() : String" style="text;strokeColor=none;fillColor=none;align=left;verticalAlign=top;spacingLeft=4;spacingRight=4;overflow=hidden;rotatable=0;points=[[0,0.5],[1,0.5]];portConstraint=eastwest;whiteSpace=wrap;html=1;" vertex="1" parent="RjrYdE1nBT9Rv9Lv7ZY--27">
          <mxGeometry y="112" width="220" height="26" as="geometry" />
        </mxCell>
        <mxCell id="RjrYdE1nBT9Rv9Lv7ZY--39" value="- convertirToDouble() : Double" style="text;strokeColor=none;fillColor=none;align=left;verticalAlign=top;spacingLeft=4;spacingRight=4;overflow=hidden;rotatable=0;points=[[0,0.5],[1,0.5]];portConstraint=eastwest;whiteSpace=wrap;html=1;" vertex="1" parent="RjrYdE1nBT9Rv9Lv7ZY--27">
          <mxGeometry y="138" width="220" height="26" as="geometry" />
        </mxCell>
        <mxCell id="RjrYdE1nBT9Rv9Lv7ZY--34" value="- btnCalcularActionPerformed (ActionEvent evt) :void" style="text;strokeColor=none;fillColor=none;align=left;verticalAlign=top;spacingLeft=4;spacingRight=4;overflow=hidden;rotatable=0;points=[[0,0.5],[1,0.5]];portConstraint=eastwest;whiteSpace=wrap;html=1;" vertex="1" parent="RjrYdE1nBT9Rv9Lv7ZY--27">
          <mxGeometry y="164" width="220" height="40" as="geometry" />
        </mxCell>
        <mxCell id="RjrYdE1nBT9Rv9Lv7ZY--35" value="- btnMinimizeMouseClicked (MouseEvent evt) : void" style="text;strokeColor=none;fillColor=none;align=left;verticalAlign=top;spacingLeft=4;spacingRight=4;overflow=hidden;rotatable=0;points=[[0,0.5],[1,0.5]];portConstraint=eastwest;whiteSpace=wrap;html=1;" vertex="1" parent="RjrYdE1nBT9Rv9Lv7ZY--27">
          <mxGeometry y="204" width="220" height="40" as="geometry" />
        </mxCell>
        <mxCell id="RjrYdE1nBT9Rv9Lv7ZY--36" value="- btnCloseMouseClicked(MouseEvent evt) : void" style="text;strokeColor=none;fillColor=none;align=left;verticalAlign=top;spacingLeft=4;spacingRight=4;overflow=hidden;rotatable=0;points=[[0,0.5],[1,0.5]];portConstraint=eastwest;whiteSpace=wrap;html=1;" vertex="1" parent="RjrYdE1nBT9Rv9Lv7ZY--27">
          <mxGeometry y="244" width="220" height="40" as="geometry" />
        </mxCell>
        <mxCell id="RjrYdE1nBT9Rv9Lv7ZY--32" value="" style="endArrow=open;endFill=1;endSize=12;html=1;rounded=0;" edge="1" parent="1" source="RjrYdE1nBT9Rv9Lv7ZY--27" target="RjrYdE1nBT9Rv9Lv7ZY--1">
          <mxGeometry width="160" relative="1" as="geometry">
            <mxPoint x="649" y="410" as="sourcePoint" />
            <mxPoint x="809" y="410" as="targetPoint" />
            <Array as="points">
              <mxPoint x="409" y="562" />
            </Array>
          </mxGeometry>
        </mxCell>
        <mxCell id="RjrYdE1nBT9Rv9Lv7ZY--33" value="" style="endArrow=open;endFill=1;endSize=12;html=1;rounded=0;" edge="1" parent="1" source="RjrYdE1nBT9Rv9Lv7ZY--27" target="RjrYdE1nBT9Rv9Lv7ZY--20">
          <mxGeometry width="160" relative="1" as="geometry">
            <mxPoint x="609" y="430" as="sourcePoint" />
            <mxPoint x="769" y="430" as="targetPoint" />
            <Array as="points">
              <mxPoint x="696" y="340" />
            </Array>
          </mxGeometry>
        </mxCell>
        <mxCell id="RjrYdE1nBT9Rv9Lv7ZY--44" value="Main" style="swimlane;fontStyle=1;align=center;verticalAlign=top;childLayout=stackLayout;horizontal=1;startSize=26;horizontalStack=0;resizeParent=1;resizeParentMax=0;resizeLast=0;collapsible=1;marginBottom=0;whiteSpace=wrap;html=1;" vertex="1" parent="1">
          <mxGeometry x="616" y="790" width="160" height="70" as="geometry" />
        </mxCell>
        <mxCell id="RjrYdE1nBT9Rv9Lv7ZY--46" value="" style="line;strokeWidth=1;fillColor=none;align=left;verticalAlign=middle;spacingTop=-1;spacingLeft=3;spacingRight=3;rotatable=0;labelPosition=right;points=[];portConstraint=eastwest;strokeColor=inherit;" vertex="1" parent="RjrYdE1nBT9Rv9Lv7ZY--44">
          <mxGeometry y="26" width="160" height="8" as="geometry" />
        </mxCell>
        <mxCell id="RjrYdE1nBT9Rv9Lv7ZY--47" value="+ &lt;u&gt;main&lt;/u&gt;(String[]): void" style="text;strokeColor=none;fillColor=none;align=left;verticalAlign=top;spacingLeft=4;spacingRight=4;overflow=hidden;rotatable=0;points=[[0,0.5],[1,0.5]];portConstraint=eastwest;whiteSpace=wrap;html=1;" vertex="1" parent="RjrYdE1nBT9Rv9Lv7ZY--44">
          <mxGeometry y="34" width="160" height="36" as="geometry" />
        </mxCell>
        <mxCell id="RjrYdE1nBT9Rv9Lv7ZY--48" value="" style="endArrow=open;endFill=1;endSize=12;html=1;rounded=0;" edge="1" parent="1" source="RjrYdE1nBT9Rv9Lv7ZY--44" target="RjrYdE1nBT9Rv9Lv7ZY--27">
          <mxGeometry width="160" relative="1" as="geometry">
            <mxPoint x="599" y="760" as="sourcePoint" />
            <mxPoint x="759" y="760" as="targetPoint" />
          </mxGeometry>
        </mxCell>
        <mxCell id="RjrYdE1nBT9Rv9Lv7ZY--49" value="&lt;font style=&quot;font-size: 13px;&quot;&gt;1&lt;/font&gt;" style="text;html=1;strokeColor=none;fillColor=none;align=center;verticalAlign=middle;whiteSpace=wrap;rounded=0;" vertex="1" parent="1">
          <mxGeometry x="679" y="770" width="20" height="20" as="geometry" />
        </mxCell>
        <mxCell id="RjrYdE1nBT9Rv9Lv7ZY--56" value="&lt;font style=&quot;font-size: 13px;&quot;&gt;1&lt;/font&gt;" style="text;html=1;strokeColor=none;fillColor=none;align=center;verticalAlign=middle;whiteSpace=wrap;rounded=0;" vertex="1" parent="1">
          <mxGeometry x="679" y="720" width="20" height="20" as="geometry" />
        </mxCell>
        <mxCell id="RjrYdE1nBT9Rv9Lv7ZY--57" value="&lt;font style=&quot;font-size: 13px;&quot;&gt;1&lt;/font&gt;" style="text;html=1;strokeColor=none;fillColor=none;align=center;verticalAlign=middle;whiteSpace=wrap;rounded=0;" vertex="1" parent="1">
          <mxGeometry x="566" y="570" width="20" height="20" as="geometry" />
        </mxCell>
        <mxCell id="RjrYdE1nBT9Rv9Lv7ZY--58" value="&lt;font style=&quot;font-size: 13px;&quot;&gt;1&lt;/font&gt;" style="text;html=1;strokeColor=none;fillColor=none;align=center;verticalAlign=middle;whiteSpace=wrap;rounded=0;" vertex="1" parent="1">
          <mxGeometry x="423" y="570" width="20" height="20" as="geometry" />
        </mxCell>
        <mxCell id="RjrYdE1nBT9Rv9Lv7ZY--59" value="&lt;font style=&quot;font-size: 13px;&quot;&gt;1&lt;/font&gt;" style="text;html=1;strokeColor=none;fillColor=none;align=center;verticalAlign=middle;whiteSpace=wrap;rounded=0;" vertex="1" parent="1">
          <mxGeometry x="669" y="400" width="20" height="20" as="geometry" />
        </mxCell>
        <mxCell id="RjrYdE1nBT9Rv9Lv7ZY--60" value="&lt;font style=&quot;font-size: 13px;&quot;&gt;&lt;b&gt;1 : *&lt;/b&gt;&lt;/font&gt;" style="text;html=1;strokeColor=none;fillColor=none;align=center;verticalAlign=middle;whiteSpace=wrap;rounded=0;" vertex="1" parent="1">
          <mxGeometry x="519" y="350" width="30" height="20" as="geometry" />
        </mxCell>
        <mxCell id="RjrYdE1nBT9Rv9Lv7ZY--61" value="&lt;font style=&quot;font-size: 13px;&quot;&gt;1&lt;/font&gt;" style="text;html=1;strokeColor=none;fillColor=none;align=center;verticalAlign=middle;whiteSpace=wrap;rounded=0;" vertex="1" parent="1">
          <mxGeometry x="229" y="540" width="20" height="20" as="geometry" />
        </mxCell>
        <mxCell id="RjrYdE1nBT9Rv9Lv7ZY--62" value="&lt;font style=&quot;font-size: 13px;&quot;&gt;1&lt;/font&gt;" style="text;html=1;strokeColor=none;fillColor=none;align=center;verticalAlign=middle;whiteSpace=wrap;rounded=0;" vertex="1" parent="1">
          <mxGeometry x="149" y="400" width="20" height="20" as="geometry" />
        </mxCell>
        <mxCell id="RjrYdE1nBT9Rv9Lv7ZY--65" value="&lt;font style=&quot;font-size: 18px;&quot;&gt;ENTIDADES&lt;/font&gt;" style="text;html=1;strokeColor=none;fillColor=none;align=center;verticalAlign=middle;whiteSpace=wrap;rounded=0;" vertex="1" parent="1">
          <mxGeometry x="49" y="730" width="150" height="30" as="geometry" />
        </mxCell>
        <mxCell id="RjrYdE1nBT9Rv9Lv7ZY--67" value="&lt;span style=&quot;font-size: 18px;&quot;&gt;SUPERCLASE&lt;/span&gt;" style="text;html=1;strokeColor=none;fillColor=none;align=center;verticalAlign=middle;whiteSpace=wrap;rounded=0;" vertex="1" parent="1">
          <mxGeometry x="199" y="50" width="150" height="30" as="geometry" />
        </mxCell>
        <mxCell id="RjrYdE1nBT9Rv9Lv7ZY--68" value="&lt;span style=&quot;font-size: 18px;&quot;&gt;SUBCLASES&lt;/span&gt;" style="text;html=1;strokeColor=none;fillColor=none;align=center;verticalAlign=middle;whiteSpace=wrap;rounded=0;" vertex="1" parent="1">
          <mxGeometry x="199" y="250" width="150" height="30" as="geometry" />
        </mxCell>
        <mxCell id="RjrYdE1nBT9Rv9Lv7ZY--71" value="&lt;span style=&quot;font-size: 18px;&quot;&gt;INTERFACES GRAFICAS&lt;/span&gt;" style="text;html=1;strokeColor=none;fillColor=none;align=center;verticalAlign=middle;whiteSpace=wrap;rounded=0;" vertex="1" parent="1">
          <mxGeometry x="626" y="260" width="150" height="60" as="geometry" />
        </mxCell>
      </root>
    </mxGraphModel>
  </diagram>
</mxfile>
